# xmcd
#
# Track frame offsets:
#	150
#	16882
#	32950
#	51105
#	68340
#	86115
#	100530
#	114637
#	130415
#	148567
#	162717
#	175075
#	188562
#	204360
#	218197
#	233375
#	247825
#	261285
#	277385
#	293287
#	309980
#
# Disc length: 4338 seconds
#
# Revision: 1
# Processed by: cddbd v1.5.1PL0 Copyright (c) Steve Scherf et al.
# Submitted via: audiograbber 1.83.01
#
DISCID=2210f015
DTITLE=Various Artist - RC42
DYEAR=1997
DGENRE=Country
TTITLE0=George Strait - Carrying Your Love Wth Me
TTITLE1=Lonestar - Come Cryin' To Me
TTITLE2=Patty Loveless - The Trouble With The Truth
TTITLE3=Tim McGraw ft. Faith Hill - It's Your Love
TTITLE4=Alan Jackson - Who's Cheatin' Who
TTITLE5=LeAnn Rimes - The Light In Your Eyes
TTITLE6=Sons Of The Desert - Whatever Comes First
TTITLE7=Tanya Tucker - Little Things
TTITLE8=Brooks and Dunn - Why Would I Say Goodbye
TTITLE9=John Berry ft. Patty Loveless - I Will If You Will
TTITLE10=Mindy McCready - A Girl's Gotta Do (What  A Girl's Gotta Do)
TTITLE11=Vince Gill - A Little More Love
TTITLE12=Deanna Carter - Count Me In
TTITLE13=Mark Chesnutt - Let It Rain
TTITLE14=Pam Tillis - All The Good Ones Are Gone
TTITLE15=Trace Adkins - I Left Something Turned On At Home
TTITLE16=Sawyer Brown - Six Days On The Road
TTITLE17=Reba McEntire - I'd Rather Ride Around With You
TTITLE18=Ty Herndon - Loved Too Much
TTITLE19=Mark Wills - Places I've Never Been
TTITLE20=Rick Trevino - I Only Get This Way With You
EXTD=
EXTT0=
EXTT1=
EXTT2=
EXTT3=
EXTT4=
EXTT5=
EXTT6=
EXTT7=
EXTT8=
EXTT9=
EXTT10=
EXTT11=
EXTT12=
EXTT13=
EXTT14=
EXTT15=
EXTT16=
EXTT17=
EXTT18=
EXTT19=
EXTT20=
PLAYORDER=
